<?xml version="1.0" encoding="UTF-8"?>
<!DOCTYPE svg PUBLIC "-//W3C//DTD SVG 1.1//EN" "http://www.w3.org/Graphics/SVG/1.1/DTD/svg11.dtd">
<svg version="1.1" xmlns="http://www.w3.org/2000/svg" xmlns:xlink="http://www.w3.org/1999/xlink" x="0" y="0" width="467" height="308.5" viewBox="0, 0, 934, 617">
  <g id="Layer_1">
    <path d="M150.3,0.15 C233.143,0.15 300.3,67.307 300.3,150.15 C300.3,232.993 233.143,300.15 150.3,300.15 C67.457,300.15 0.3,232.993 0.3,150.15 C0.3,67.307 67.457,0.15 150.3,0.15 z M150.3,57.45 C99.103,57.45 57.6,98.953 57.6,150.15 C57.6,201.347 99.103,242.85 150.3,242.85 C201.497,242.85 243,201.347 243,150.15 C243,98.953 201.497,57.45 150.3,57.45 z" fill="#000000"/>
    <path d="M150.3,316.85 C233.143,316.85 300.3,384.007 300.3,466.85 C300.3,549.693 233.143,616.85 150.3,616.85 C67.457,616.85 0.3,549.693 0.3,466.85 C0.3,384.007 67.457,316.85 150.3,316.85 z M150.3,374.15 C99.103,374.15 57.6,415.653 57.6,466.85 C57.6,518.047 99.103,559.55 150.3,559.55 C201.497,559.55 243,518.047 243,466.85 C243,415.653 201.497,374.15 150.3,374.15 z" fill="#000000"/>
    <path d="M317,28.8 C317,12.977 329.827,0.15 345.65,0.15 C361.473,0.15 374.3,12.977 374.3,28.8 L374.3,150.15 L374.3,150.15 C375.487,202.945 415.11,240.337 467,242.85 C519.143,242.168 558.393,201.818 559.7,150.15 L559.7,28.8 C559.7,12.977 572.527,0.15 588.35,0.15 C604.173,0.15 617,12.977 617,28.8 L617,150.15 C617,232.993 549.843,300.15 467,300.15 C384.157,300.15 317,232.993 317,150.15 L317,28.8 z" fill="#000000"/>
    <path d="M317,588.2 C317,604.023 329.827,616.85 345.65,616.85 C361.473,616.85 374.3,604.023 374.3,588.2 L374.3,466.85 L374.3,466.85 C375.487,414.054 415.11,376.663 467,374.15 C519.143,374.832 558.393,415.182 559.7,466.85 L559.7,588.2 C559.7,604.023 572.527,616.85 588.35,616.85 C604.173,616.85 617,604.023 617,588.2 L617,466.85 C617,384.007 549.843,316.85 467,316.85 C384.157,316.85 317,384.007 317,466.85 L317,588.2 z" fill="#000000"/>
    <path d="M783.7,0.15 L791.11,0.333 C828.593,2.683 862.927,17.968 889.736,44.114 L889.733,44.127 C895.619,49.445 897.964,56.988 898.355,64.718 C898.355,80.623 885.461,93.518 869.555,93.518 C861.383,93.378 854.846,90.439 849.103,84.696 L849.103,84.739 C831.835,67.192 807.831,59.135 783.7,57.45 C731.557,58.132 692.307,98.482 691,150.15 L691,273.452 L690.901,273.452 C689.997,289.14 677.425,299.389 662.35,300.15 C647.643,299.884 634.558,288.504 633.799,273.452 L633.7,273.452 L633.7,150.15 C634.025,66.807 700.886,1.196 783.7,0.15 z" fill="#000000"/>
    <path d="M633.7,466.85 C633.693,427.774 648.868,392.41 675.018,363.805 L674.848,363.645 C694.89,342.856 720.621,327.422 748.962,321.224 C751.464,320.568 749.55,321.055 754.748,319.959 C758.937,319.043 757.074,319.332 760.311,318.944 C768.027,317.526 775.87,317.044 783.7,316.85 L783.7,316.85 L791.11,317.033 C799.238,317.547 807.345,318.611 815.262,320.541 C815.433,320.57 815.318,320.548 815.604,320.624 C826.291,323.23 822.08,321.901 828.401,324.055 C830.034,324.493 829.03,324.192 831.377,325.069 C839.225,327.744 835.958,326.405 841.298,328.777 C844.433,329.949 842.453,329.155 847.146,331.376 C851.014,333.094 849.495,332.296 851.797,333.576 C855.329,335.174 858.649,337.196 861.946,339.222 C862.716,339.65 862.347,339.422 863.055,339.903 C871.658,345.022 879.487,351.307 886.905,357.998 L886.905,357.998 L889.681,360.763 L889.736,360.814 L889.735,360.817 L890.087,361.168 C890.849,361.901 890.582,361.601 890.939,362.017 L892.157,363.229 C917.39,390.135 931.288,424.877 933.521,461.492 C933.748,462.604 933.549,461.593 933.7,464.575 C933.7,480.398 920.873,493.225 905.05,493.225 L695.272,493.225 C707.408,533.609 742.181,558.015 783.7,559.55 C807.831,557.865 831.835,549.808 849.103,532.261 L849.103,532.304 C854.846,526.562 861.383,523.622 869.555,523.482 C885.461,523.483 898.355,536.377 898.355,552.282 C897.965,560.012 895.62,567.555 889.733,572.873 L889.736,572.886 C862.927,599.032 828.593,614.318 791.11,616.667 L783.7,616.85 L783.7,616.85 C700.886,615.804 634.025,550.193 633.7,466.85 L633.7,466.85 z M785.526,374.308 L777.034,374.569 L776.628,374.607 L770.135,375.434 L766.721,376.01 L764.065,376.61 C758.218,377.73 752.678,379.883 747.187,382.108 L744.99,383.068 L740.912,385.074 L736.46,387.544 L734.326,388.794 C724.801,395.317 729.402,391.839 720.523,399.227 C709.334,409.115 701.495,421.871 696.708,435.925 L870.431,435.925 C865.779,423.146 858.095,411.543 849.103,401.408 L849.103,401.439 C831.991,384.262 811.624,377.791 788.222,374.542 L785.526,374.308 z" fill="#000000"/>
  </g>
</svg>
